<svg width="34" height="34" viewBox="0 0 34 34" fill="none" xmlns="http://www.w3.org/2000/svg">
<path d="M29.5115 17.2749C28.4744 16.2378 26.7871 16.2378 25.75 17.2749L22.6214 20.4034C22.5054 20.5195 22.3553 20.5904 22.1935 20.6058C21.7926 19.6332 20.8361 18.9636 19.7352 18.9636H16.7105C15.7391 18.1263 14.512 17.6687 13.2197 17.6687C11.6219 17.6687 10.124 18.3719 9.10176 19.6004L4.45082 24.2513C3.97129 24.7308 3.70703 25.3683 3.70703 26.0463C3.70703 26.7244 3.97129 27.3618 4.45082 27.8413L7.14045 30.531C7.61805 31.0086 8.26451 31.2747 8.93547 31.2747C8.99219 31.2747 9.04955 31.2728 9.10691 31.2689C9.83846 31.2193 10.512 30.8564 10.9561 30.2738L13.2951 27.2013C13.3338 27.1504 13.395 27.1201 13.4588 27.1201H22.2541C23.0107 27.1201 23.7217 26.8255 24.2573 26.2906L29.5115 21.0357C30.0136 20.5336 30.2907 19.8653 30.2907 19.155C30.2907 18.4447 30.0142 17.777 29.5115 17.2742V17.2749ZM28.372 19.8968L23.1177 25.1511C22.887 25.3818 22.5802 25.5088 22.2541 25.5088H13.4588C12.8948 25.5088 12.3547 25.7769 12.0131 26.2255L9.67475 29.298C9.51039 29.5139 9.26998 29.6434 8.99928 29.6615C8.72793 29.6789 8.4727 29.5841 8.28063 29.3921L5.591 26.7024C5.22941 26.3409 5.22941 25.7524 5.591 25.3908L10.2574 20.7244C10.28 20.7025 10.3019 20.6793 10.3219 20.6548C11.0366 19.7815 12.093 19.2807 13.2203 19.2807C14.2032 19.2807 15.1313 19.659 15.8352 20.3461C15.9854 20.493 16.1877 20.5755 16.3979 20.5755H19.7359C20.2702 20.5755 20.7175 20.9751 20.7774 21.5049C20.78 21.5256 20.7832 21.5462 20.7871 21.5662C20.7858 21.5849 20.7845 21.6042 20.7845 21.6235C20.7845 22.2017 20.314 22.6715 19.7365 22.6715H13.9712C13.5265 22.6715 13.1655 23.0325 13.1655 23.4772C13.1655 23.9219 13.5265 24.2829 13.9712 24.2829H19.7365C21.0011 24.2829 22.0614 23.3954 22.3295 22.2113C22.8702 22.1643 23.373 21.9316 23.7616 21.543L26.8902 18.4144C27.2988 18.0058 27.964 18.0058 28.3726 18.4144C28.5705 18.6123 28.6794 18.8759 28.6794 19.1556C28.6794 19.4354 28.5705 19.699 28.3726 19.8968H28.372ZM10.3231 14.2933H13.6921C13.7881 15.7241 14.9818 16.8585 16.4365 16.8585H22.0124C23.4671 16.8585 24.6607 15.7235 24.7568 14.2933H28.1251C29.2704 14.2933 30.2018 13.3613 30.2018 12.216V11.4483C30.2018 10.4016 29.7931 9.41934 29.05 8.68199C28.8431 8.47639 28.6162 8.29785 28.3758 8.14639C28.7226 7.70102 28.9301 7.14221 28.9301 6.5357C28.9301 5.08744 27.7519 3.90924 26.3043 3.90924C24.8567 3.90924 23.6778 5.08744 23.6778 6.5357C23.6778 7.14543 23.8873 7.70682 24.2373 8.15348C23.8441 8.40355 23.4974 8.7226 23.2144 9.0932C23.1848 9.06291 23.1564 9.03133 23.1261 9.00104C22.7078 8.58596 22.2347 8.24693 21.7243 7.98783C22.3972 7.33492 22.8161 6.42162 22.8161 5.41229C22.8161 3.43164 21.2048 1.82031 19.2241 1.82031C17.2435 1.82031 15.6321 3.43164 15.6321 5.41229C15.6321 6.42613 16.055 7.34201 16.7324 7.99557C16.1806 8.27852 15.6818 8.6517 15.2545 9.09643C15.1442 8.95141 15.0231 8.81219 14.8909 8.68135C14.684 8.47574 14.4572 8.29785 14.2161 8.14574C14.5629 7.70037 14.7704 7.14156 14.7704 6.53441C14.7704 5.08615 13.5922 3.90795 12.1446 3.90795C10.697 3.90795 9.51813 5.08615 9.51813 6.53441C9.51813 7.14414 9.7276 7.70553 10.0776 8.15219C8.9793 8.85086 8.24582 10.0864 8.24582 11.487V12.2153C8.24582 13.3606 9.17717 14.2926 10.3225 14.2926L10.3231 14.2933ZM26.3037 5.52057C26.8631 5.52057 27.3181 5.97561 27.3181 6.5357C27.3181 7.0958 26.8638 7.54955 26.3049 7.5502C26.3049 7.5502 26.3049 7.5502 26.3043 7.5502H26.3017C25.7429 7.54891 25.2885 7.09451 25.2885 6.5357C25.2885 5.97689 25.7436 5.52057 26.3037 5.52057ZM26.2863 9.16152H26.3004C26.3004 9.16152 26.303 9.16152 26.3043 9.16152C26.3043 9.16152 26.3056 9.16152 26.3062 9.16152C26.9134 9.16152 27.4844 9.39742 27.9156 9.82539C28.3513 10.2579 28.5911 10.8347 28.5911 11.4483V12.216C28.5911 12.4731 28.3829 12.682 28.1257 12.682H24.7581C24.7246 11.9266 24.5409 11.1989 24.2205 10.5331C24.5776 9.73129 25.3691 9.16861 26.2869 9.16152H26.2863ZM19.2241 3.43164C20.3166 3.43164 21.2048 4.32045 21.2048 5.41229C21.2048 6.50412 20.316 7.39293 19.2241 7.39293C18.1323 7.39293 17.2435 6.50412 17.2435 5.41229C17.2435 4.32045 18.1323 3.43164 19.2241 3.43164ZM19.1945 9.00426C19.2048 9.00426 19.2145 9.00426 19.2248 9.00426C20.2689 9.00426 21.2505 9.40838 21.9917 10.1444C22.74 10.8876 23.1525 11.8776 23.1525 12.932V14.107C23.1525 14.7354 22.6414 15.2472 22.0124 15.2472H16.4365C15.8081 15.2472 15.2963 14.7361 15.2963 14.107V12.9913C15.2963 10.8089 17.045 9.01973 19.1945 9.00426ZM12.1446 5.51992C12.704 5.51992 13.1591 5.97496 13.1591 6.53506C13.1591 7.09516 12.704 7.54955 12.1446 7.54955C11.5851 7.54955 11.1295 7.09451 11.1295 6.53506C11.1295 5.97561 11.5845 5.51992 12.1446 5.51992ZM9.85779 11.487C9.85779 10.2134 10.8755 9.17055 12.1272 9.16088H12.1414C12.1414 9.16088 12.1439 9.16088 12.1452 9.16088C12.1452 9.16088 12.1465 9.16088 12.1472 9.16088C12.7543 9.16088 13.3254 9.39678 13.7566 9.82475C13.968 10.0342 14.1323 10.2785 14.2471 10.544C13.9306 11.197 13.7366 11.9195 13.6947 12.6813H10.3238C10.0673 12.6813 9.85844 12.4725 9.85844 12.2153V11.487H9.85779Z" fill="black"/>
</svg>
