<svg width="20" height="20" viewBox="0 0 20 20" fill="none" xmlns="http://www.w3.org/2000/svg">
<path d="M14.5 0.25H5.5C4.10807 0.251489 2.77358 0.805091 1.78933 1.78933C0.805091 2.77358 0.251489 4.10807 0.25 5.5V14.5C0.251489 15.8919 0.805091 17.2264 1.78933 18.2107C2.77358 19.1949 4.10807 19.7485 5.5 19.75H14.5C15.8919 19.7485 17.2264 19.1949 18.2107 18.2107C19.1949 17.2264 19.7485 15.8919 19.75 14.5V5.5C19.7485 4.10807 19.1949 2.77358 18.2107 1.78933C17.2264 0.805091 15.8919 0.251489 14.5 0.25ZM10 14.5C9.10998 14.5 8.23995 14.2361 7.49993 13.7416C6.75991 13.2471 6.18314 12.5443 5.84254 11.7221C5.50195 10.8998 5.41283 9.99501 5.58647 9.12209C5.7601 8.24918 6.18868 7.44736 6.81802 6.81802C7.44736 6.18868 8.24918 5.7601 9.12209 5.58647C9.99501 5.41283 10.8998 5.50195 11.7221 5.84254C12.5443 6.18314 13.2471 6.75991 13.7416 7.49993C14.2361 8.23995 14.5 9.10998 14.5 10C14.4988 11.1931 14.0243 12.337 13.1806 13.1806C12.337 14.0243 11.1931 14.4988 10 14.5ZM15.625 5.5C15.4025 5.5 15.185 5.43402 15 5.3104C14.815 5.18679 14.6708 5.01109 14.5856 4.80552C14.5005 4.59995 14.4782 4.37375 14.5216 4.15552C14.565 3.93729 14.6722 3.73684 14.8295 3.5795C14.9868 3.42217 15.1873 3.31502 15.4055 3.27162C15.6238 3.22821 15.85 3.25049 16.0555 3.33564C16.2611 3.42078 16.4368 3.56498 16.5604 3.74998C16.684 3.93499 16.75 4.1525 16.75 4.375C16.75 4.67337 16.6315 4.95952 16.4205 5.1705C16.2095 5.38147 15.9234 5.5 15.625 5.5ZM13 10C13 10.5933 12.8241 11.1734 12.4944 11.6667C12.1648 12.1601 11.6962 12.5446 11.1481 12.7716C10.5999 12.9987 9.99667 13.0581 9.41473 12.9424C8.83279 12.8266 8.29824 12.5409 7.87868 12.1213C7.45912 11.7018 7.1734 11.1672 7.05764 10.5853C6.94189 10.0033 7.0013 9.40013 7.22836 8.85195C7.45542 8.30377 7.83994 7.83524 8.33329 7.50559C8.82664 7.17595 9.40666 7 10 7C10.7956 7 11.5587 7.31607 12.1213 7.87868C12.6839 8.44129 13 9.20435 13 10Z" fill="#808080"/>
</svg>
