<svg width="19" height="20" viewBox="0 0 19 20" fill="none" xmlns="http://www.w3.org/2000/svg">
<path d="M18.8216 1.73709C18.8056 1.46187 18.689 1.20213 18.494 1.00718C18.2991 0.81224 18.0394 0.695665 17.7641 0.679592C14.0516 0.461155 10.7713 0.898967 8.01414 1.9799C5.37601 3.01397 3.34258 4.61709 2.13133 6.61584C0.479451 9.34491 0.475701 12.658 2.08914 15.8212L0.455076 17.4552C0.350429 17.5599 0.267419 17.6841 0.210784 17.8208C0.154149 17.9576 0.125 18.1041 0.125 18.2521C0.125 18.4001 0.154149 18.5466 0.210784 18.6834C0.267419 18.8201 0.350429 18.9443 0.455076 19.049C0.666421 19.2603 0.953065 19.379 1.25195 19.379C1.39994 19.379 1.54649 19.3499 1.68322 19.2933C1.81995 19.2366 1.94418 19.1536 2.04883 19.049L3.68289 17.4149C5.25226 18.2155 6.85914 18.6196 8.41258 18.6196C9.99087 18.6245 11.5398 18.193 12.8882 17.3727C14.887 16.1615 16.4901 14.1271 17.5241 11.4899C18.6023 8.73084 19.0401 5.44959 18.8216 1.73709ZM11.7191 15.4452C9.8357 16.5862 7.62601 16.6724 5.37039 15.719L13.296 7.79334C13.4007 7.6887 13.4837 7.56446 13.5403 7.42773C13.5969 7.291 13.6261 7.14446 13.6261 6.99647C13.6261 6.84847 13.5969 6.70193 13.5403 6.5652C13.4837 6.42847 13.4007 6.30424 13.296 6.19959C13.1914 6.09495 13.0671 6.01194 12.9304 5.9553C12.7937 5.89867 12.6471 5.86952 12.4991 5.86952C12.3511 5.86952 12.2046 5.89867 12.0679 5.9553C11.9311 6.01194 11.8069 6.09495 11.7023 6.19959L3.78226 14.1308C2.83164 11.8808 2.91789 9.66553 4.06351 7.78209C6.02383 4.5449 10.6766 2.74584 16.626 2.88365C16.7554 8.83116 14.9563 13.4849 11.7191 15.4452Z" fill="black"/>
</svg>
