<svg width="20" height="20" viewBox="0 0 20 20" fill="none" xmlns="http://www.w3.org/2000/svg">
<path d="M0 3.75C0 1.67875 1.67875 0 3.75 0H16.25C18.3212 0 20 1.67875 20 3.75V16.25C20 18.3212 18.3212 20 16.25 20H3.75C1.67875 20 0 18.3212 0 16.25V3.75ZM6.0625 16.7412V7.71125H3.0425V16.7412H6.0625ZM4.5525 6.4775C5.605 6.4775 6.26125 5.785 6.26125 4.9175C6.24125 4.03125 5.605 3.3575 4.5725 3.3575C3.53875 3.3575 2.86375 4.03125 2.86375 4.9175C2.86375 5.785 3.51875 6.4775 4.5325 6.4775H4.5525ZM10.755 16.7412V11.6988C10.755 11.4288 10.775 11.16 10.8537 10.9662C11.0725 10.4275 11.57 9.86875 12.4038 9.86875C13.4975 9.86875 13.935 10.6963 13.935 11.9113V16.7412H16.955V11.5638C16.955 8.79 15.465 7.49875 13.4775 7.49875C11.875 7.49875 11.1563 8.37375 10.755 8.99V7.71125H7.73375C7.77375 8.555 7.735 16.69 7.73375 16.7425L10.755 16.7412Z" fill="#808080"/>
</svg>
