<svg width="21" height="23" viewBox="0 0 21 23" fill="none" xmlns="http://www.w3.org/2000/svg">
<path d="M19.9935 7.82946C20.8 10.086 20.841 12.562 20.1097 14.8461C19.3784 17.1303 17.9188 19.085 15.9734 20.3855C14.0281 21.686 11.7141 22.254 9.41604 21.9951C7.11794 21.7362 4.97407 20.666 3.34065 18.9623C1.50582 17.0573 0.441764 14.4922 0.367452 11.7948C0.29314 9.09735 1.21422 6.47288 2.94116 4.46142C4.66809 2.44996 7.0695 1.20454 9.6512 0.981441C12.2329 0.758342 14.7985 1.57454 16.82 3.26207L18.7044 1.29821C18.809 1.1892 18.9333 1.10273 19.07 1.04374C19.2067 0.984741 19.3533 0.954377 19.5013 0.954377C19.6493 0.954377 19.7958 0.984741 19.9325 1.04374C20.0693 1.10273 20.1935 1.1892 20.2981 1.29821C20.4028 1.40721 20.4858 1.53662 20.5424 1.67905C20.5991 1.82147 20.6282 1.97412 20.6282 2.12828C20.6282 2.28244 20.5991 2.43509 20.5424 2.57752C20.4858 2.71994 20.4028 2.84936 20.2981 2.95836L11.2981 12.3334C11.1935 12.4424 11.0693 12.5288 10.9325 12.5878C10.7958 12.6468 10.6493 12.6772 10.5013 12.6772C10.3533 12.6772 10.2067 12.6468 10.07 12.5878C9.93328 12.5288 9.80905 12.4424 9.7044 12.3334C9.59975 12.2244 9.51674 12.0949 9.46011 11.9525C9.40347 11.8101 9.37432 11.6574 9.37432 11.5033C9.37432 11.3491 9.40347 11.1965 9.46011 11.054C9.51674 10.9116 9.59975 10.7822 9.7044 10.6732L11.9544 8.32946C11.3203 8.01386 10.6073 7.91235 9.91515 8.03909C9.22296 8.16584 8.58602 8.51451 8.09321 9.03646C7.6004 9.55842 7.27631 10.2276 7.16616 10.9506C7.05602 11.6737 7.16531 12.4145 7.47879 13.0697C7.79227 13.725 8.29429 14.2619 8.91481 14.6056C9.53533 14.9494 10.2434 15.0827 10.9402 14.9872C11.637 14.8916 12.2877 14.5718 12.8016 14.0724C13.3155 13.573 13.667 12.919 13.8069 12.2015C13.8658 11.8968 14.0385 11.629 14.2871 11.4569C14.5356 11.2848 14.8395 11.2227 15.1321 11.284C15.4246 11.3454 15.6817 11.5253 15.8469 11.7842C16.0121 12.0431 16.0718 12.3597 16.0128 12.6644C15.7732 13.8941 15.1609 15.0111 14.2662 15.8512C13.3714 16.6912 12.2414 17.2099 11.0425 17.3308C9.84356 17.4518 8.63901 17.1686 7.60614 16.523C6.57326 15.8775 5.76661 14.9035 5.3049 13.7446C4.84319 12.5857 4.75082 11.3031 5.04137 10.0854C5.33192 8.86768 5.99005 7.77931 6.91891 6.98043C7.84776 6.18156 8.99827 5.71437 10.2011 5.64764C11.404 5.58091 12.5956 5.91815 13.6006 6.60973L15.216 4.93297C13.6986 3.75255 11.8237 3.18125 9.93487 3.32376C8.04602 3.46627 6.26973 4.31304 4.93152 5.7089C3.59331 7.10476 2.78282 8.95621 2.64857 10.924C2.51433 12.8917 3.06532 14.8439 4.20058 16.4229C5.33584 18.0019 6.97932 19.1018 8.82984 19.5211C10.6804 19.9404 12.614 19.6511 14.2763 18.706C15.9387 17.761 17.2184 16.2236 17.881 14.3756C18.5436 12.5276 18.5447 10.4927 17.8841 8.64391C17.8315 8.49937 17.8069 8.34542 17.8117 8.19092C17.8164 8.03643 17.8505 7.88444 17.9119 7.74372C17.9733 7.603 18.0608 7.47632 18.1694 7.37098C18.278 7.26564 18.4055 7.18372 18.5447 7.12994C18.6838 7.07616 18.8317 7.05158 18.98 7.05762C19.1283 7.06366 19.274 7.10019 19.4086 7.16512C19.5433 7.23005 19.6643 7.32209 19.7647 7.43594C19.865 7.54979 19.9428 7.6832 19.9935 7.82848V7.82946Z" fill="black"/>
</svg>
