<svg width="16" height="18" viewBox="0 0 16 18" fill="none" xmlns="http://www.w3.org/2000/svg">
<path d="M13.6316 4.135C13.5146 4.076 13.4016 4.011 13.2906 3.94C12.9706 3.732 12.6766 3.487 12.4156 3.21C11.7636 2.477 11.5196 1.733 11.4296 1.212H11.4336C11.3586 0.779 11.3896 0.5 11.3946 0.5H8.42164V11.789C8.42164 11.941 8.42164 12.091 8.41564 12.239C8.41564 12.257 8.41364 12.274 8.41264 12.294C8.41264 12.302 8.41264 12.31 8.41064 12.319V12.325C8.34664 13.148 7.87064 13.885 7.14064 14.293C6.76564 14.502 6.34264 14.612 5.91064 14.612C4.52664 14.612 3.40364 13.502 3.40364 12.133C3.40364 10.763 4.52664 9.654 5.91064 9.654C6.17364 9.653 6.43364 9.694 6.68264 9.774L6.68664 6.801C5.15664 6.607 3.61464 7.05 2.43264 8.023C1.91964 8.461 1.48964 8.982 1.15964 9.565C1.03364 9.778 0.560642 10.631 0.503642 12.017C0.467642 12.804 0.707642 13.619 0.822642 13.955V13.963C0.894642 14.161 1.17364 14.838 1.62964 15.408C1.99664 15.866 2.43064 16.268 2.91664 16.601V16.594L2.92364 16.601C4.36264 17.562 5.95864 17.499 5.95864 17.499C6.23464 17.488 7.15964 17.499 8.21064 17.01C9.37564 16.467 10.0386 15.66 10.0386 15.66C10.4626 15.177 10.7996 14.627 11.0356 14.033C11.3046 13.339 11.3946 12.506 11.3946 12.173V6.183C11.4306 6.205 11.9106 6.517 11.9106 6.517C11.9106 6.517 12.6026 6.952 13.6816 7.236C14.4566 7.438 15.4996 7.48 15.4996 7.48V4.582C15.1336 4.621 14.3916 4.507 13.6316 4.135Z" fill="#808080"/>
</svg>
