<svg width="22" height="18" viewBox="0 0 22 18" fill="none" xmlns="http://www.w3.org/2000/svg">
<path d="M20.9684 3.5175C20.8801 3.17189 20.7109 2.85224 20.4747 2.58491C20.2385 2.31758 19.9421 2.11024 19.61 1.98C16.3962 0.738753 11.2812 0.750004 11 0.750004C10.7188 0.750004 5.60375 0.738753 2.39 1.98C2.0579 2.11024 1.76153 2.31758 1.52534 2.58491C1.28915 2.85224 1.1199 3.17189 1.03156 3.5175C0.78875 4.45313 0.5 6.16313 0.5 9C0.5 11.8369 0.78875 13.5469 1.03156 14.4825C1.11977 14.8283 1.28895 15.1481 1.52515 15.4156C1.76136 15.6831 2.0578 15.8906 2.39 16.0209C5.46875 17.2088 10.2875 17.25 10.9381 17.25H11.0619C11.7125 17.25 16.5341 17.2088 19.61 16.0209C19.9422 15.8906 20.2386 15.6831 20.4748 15.4156C20.711 15.1481 20.8802 14.8283 20.9684 14.4825C21.2113 13.545 21.5 11.8369 21.5 9C21.5 6.16313 21.2113 4.45313 20.9684 3.5175ZM14.2081 9.31219L9.70813 12.3122C9.65164 12.3499 9.58597 12.3715 9.51815 12.3748C9.45032 12.3781 9.38287 12.3629 9.32301 12.3309C9.26314 12.2988 9.2131 12.2511 9.17822 12.1928C9.14335 12.1346 9.12496 12.0679 9.125 12V6C9.12496 5.9321 9.14335 5.86545 9.17822 5.80718C9.2131 5.74892 9.26314 5.70121 9.32301 5.66916C9.38287 5.63711 9.45032 5.62191 9.51815 5.6252C9.58597 5.62849 9.65164 5.65013 9.70813 5.68782L14.2081 8.68782C14.2596 8.72205 14.3017 8.76846 14.3309 8.82292C14.3601 8.87739 14.3754 8.93822 14.3754 9C14.3754 9.06179 14.3601 9.12262 14.3309 9.17708C14.3017 9.23155 14.2596 9.27796 14.2081 9.31219Z" fill="#808080"/>
</svg>
